# AST/ASF file generated using VICON BodyLanguage
# -----------------------------------------------
:version 1.10
:name VICON
:units
  mass 1.0
  length 0.45
  angle deg
:documentation
   .ast/.asf automatically generated from VICON data using
   VICON BodyBuilder and BodyLanguage model FoxedUp or BRILLIANT.MOD
:root
   order TX TY TZ RX RY RZ
   axis XYZ
   position 0 0 0  
   orientation 0 0 0 
:bonedata
  begin
     id 1 
     name lhipjoint
     direction 0.521452 -0.77106 0.36545 
     length 2.0933 
     axis 0 0 0  XYZ
  end
  begin
     id 2 
     name lfemur
     direction 0.34202 -0.939693 0  
     length 6.83441  
     axis 0 0 20  XYZ
    dof rx ry rz
    limits (-160.0 20.0)
           (-70.0 70.0)
           (-60.0 70.0)
  end
  begin
     id 3 
     name ltibia
     direction 0.34202 -0.939693 0   
     length 7.28749   
     axis 0 0 20   XYZ
    dof rx
    limits (-10.0 170.0)
  end
  begin
     id 4 
     name lfoot
     direction 0.100608 -0.276418 0.955757   
     length 1.52195   
     axis -90 7.62852e-016 20   XYZ
    dof rx rz
    limits (-45.0 90.0)
           (-70.0 20.0)
  end
  begin
     id 5 
     name ltoes
     direction 1.53558e-011 -4.21907e-011 1   
     length 0.770459   
     axis -90 7.62852e-016 20   XYZ
    dof rx
    limits (-90.0 20.0)
  end
  begin
     id 6 
     name rhipjoint
     direction -0.488071 -0.788702 0.373812   
     length 2.04648  
     axis 0 0 0  XYZ 
  end
  begin
     id 7 
     name rfemur
     direction -0.34202 -0.939693 0   
     length 6.92583   
     axis 0 0 -20   XYZ
    dof rx ry rz
    limits (-160.0 20.0)
           (-70.0 70.0)
           (-70.0 60.0)
  end
  begin
     id 8 
     name rtibia
     direction -0.34202 -0.939693 0   
     length 7.41043   
     axis 0 0 -20   XYZ
    dof rx
    limits (-10.0 170.0)
 end
 begin
     id 9 
     name rfoot
     direction -0.0784433 -0.215521 0.973343   
     length 1.67708  
     axis -90 -7.62852e-016 -20   XYZ
    dof rx rz
    limits (-45.0 90.0)
           (-20.0 70.0)
  end
  begin
     id 10 
     name rtoes
     direction -1.53551e-011 -4.21842e-011 1   
     length 0.849787   
     axis -90 -7.62852e-016 -20   XYZ
    dof rx
    limits (-90.0 20.0)
  end
  begin
     id 11 
     name lowerback
     direction -0.0122332 0.997575 -0.0685192   
     length 1.98724   
     axis 0 0 0   XYZ
    dof rx ry rz
    limits (-20.0 45.0)
           (-30.0 30.0)
           (-30.0 30.0)
  end
  begin
     id 12 
     name upperback
     direction 0.0182347 0.999724 -0.0148421   
     length 1.99029   
     axis 0 0 0   XYZ
    dof rx ry rz
    limits (-20.0 45.0)
           (-30.0 30.0)
           (-30.0 30.0)
  end
  begin
     id 13 
     name thorax
     direction 0.0242908 0.99956 0.0170184   
     length 1.99573   
     axis 0 0 0   XYZ
    dof rx ry rz
    limits (-20.0 45.0)
           (-30.0 30.0)
           (-30.0 30.0)
  end
  begin
     id 14 
     name lowerneck
     direction 0.0654488 0.985533 0.156338   
     length 1.4285   
     axis 0 0 0   XYZ
    dof rx ry rz
    limits (-20.0 45.0)
           (-30.0 30.0)
           (-30.0 30.0)
  end
  begin
     id 15 
     name upperneck
     direction -0.02953 0.998556 -0.0448842   
     length 1.44709   
     axis 0 0 0   XYZ
    dof rx ry rz
    limits (-20.0 45.0)
           (-30.0 30.0)
           (-30.0 30.0)
  end
  begin
     id 16
     name head
     direction -0.0155588 0.999386 -0.0314063  
     length 1.44689  
     axis 0 0 0   XYZ
    dof rx ry rz
    limits (-20.0 45.0)
           (-30.0 30.0)
           (-30.0 30.0)
  end
  begin
     id 17 
     name lclavicle
     direction 0.968229 0.236071 -0.0824755  
     length 3.60593  
     axis 0 0 0   XYZ
    dof ry rz
    limits (-20.0 10.0)
           (0.0 20.0)
  end
  begin
     id 18 
     name lhumerus
     direction 1 -4.48968e-011 7.8138e-029   
     length 5.06035   
     axis 180 -30 -90   XYZ
    dof rx ry rz
    limits (-60.0 90.0)
           (-90.0 90.0)
           (-90.0 90.0)
  end
  begin
     id 19
     name lradius
     direction 1 -4.48967e-011 9.02887e-028   
     length 3.1478   
     axis 180 -30 -90   XYZ
    dof rx
    limits (-10.0 170.0)
  end
  begin
     id 20
     name lwrist
     direction 1 -4.48961e-011 7.20928e-028   
     length 1.5739   
     axis -5.52449e-016 90 90   XYZ
    dof ry
    limits (-180.0 0.0)
 end
  begin
     id 21 
     name lhand
     direction 1 -4.48972e-011 1.44186e-027   
     length 0.606747   
     axis -9.20027e-016 90 90   XYZ
    dof rx rz
    limits (-90.0 90.0)
           (-45.0 45.0)
  end
  begin
     id 22 
     name lfingers
     direction 1 -4.48943e-011 2.88371e-027   
     length 0.489175   
     axis -1.84005e-015 90 90   XYZ
    dof rx
    limits (0.0 90.0)
  end
  begin
     id 23
     name lthumb
     direction 0.707107 -6.34917e-011 0.707107   
     length 0.70236   
     axis -90 45 2.85299e-015   XYZ
    dof rx rz
    limits (-45.0 45.0)
           (-45.0 45.0)
  end
  begin
     id 24 
     name rclavicle
     direction -0.978165 0.207816 0.0022268   
     length 3.35425  
     axis 0 0 0   XYZ 
    dof ry rz
    limits (-10.0 20.0)
           (-20.0 0.0)
  end
  begin
     id 25 
     name rhumerus
     direction -1 -4.48964e-011 -4.02159e-027  
     length 5.12273   
     axis 180 30 90   XYZ
    dof rx ry rz
    limits (-90.0 60.0)
           (-90.0 90.0)
           (-90.0 90.0)
  end
  begin
     id 26 
     name rradius
     direction -1 -4.48966e-011 1.62746e-027   
     length 3.422   
     axis 180 30 90   XYZ
    dof rx
    limits (-10.0 170.0)
  end
  begin
     id 27 
     name rwrist
     direction -1 -4.4896e-011 7.20928e-028   
     length 1.711   
     axis -5.52449e-016 -90 -90   XYZ
    dof ry
    limits (-180.0 0.0)
  end
  begin
     id 28
     name rhand
     direction -1 -4.48979e-011 1.44186e-027   
     length 0.704599   
     axis -9.20027e-016 -90 -90   XYZ
    dof rx rz
    limits (-90.0 90.0)
           (-45.0 45.0)
  end
  begin
     id 29
     name rfingers
     direction -1 -4.48962e-011 2.88371e-027   
     length 0.568066   
     axis -1.84005e-015 -90 -90   XYZ
    dof rx
    limits (0.0 90.0)
  end
  begin
     id 30
     name rthumb
     direction -0.707107 -6.34949e-011 0.707107   
     length 0.815633   
     axis -90 -45 -2.85299e-015   XYZ
    dof rx rz
    limits (-45.0 45.0)
           (-45.0 45.0)
  end
:hierarchy
  begin
    root lhipjoint rhipjoint lowerback
    lhipjoint lfemur
    lfemur ltibia
    ltibia lfoot
    lfoot ltoes
    rhipjoint rfemur
    rfemur rtibia
    rtibia rfoot
    rfoot rtoes
    lowerback upperback
    upperback thorax
    thorax lowerneck lclavicle rclavicle
    lowerneck upperneck
    upperneck head
    lclavicle lhumerus
    lhumerus lradius
    lradius lwrist
    lwrist lhand lthumb
    lhand lfingers
    rclavicle rhumerus
    rhumerus rradius
    rradius rwrist
    rwrist rhand rthumb
    rhand rfingers
  end

#!OML:ASF E:\id_vita\Project 1\Capture day 1\Session 1\Male1.ASF
:FULLY-SPECIFIED
:DEGREES
17
root -25.9436 15.6577 -2.06838 97.6063 84.7902 92.5627
lowerback -2.11652 -2.94697 -8.55768
upperback -0.516241 -3.70279 -0.689601
thorax 1.14927 -1.86511 3.94092
lowerneck -9.16591 1.07937 4.13126
upperneck 3.23457 1.02712 -1.05579
head 2.66896 0.537143 -1.01147
rclavicle 3.00413e-014 1.77912e-014
rhumerus -145.242 -24.2822 75.1712
rradius 4.04343
rwrist 147.376
rhand -22.67 39.763
rfingers 7.12502
rthumb 3.76176 9.81647
lclavicle 3.00413e-014 1.77912e-014
lhumerus -11.8661 4.66649 88.8696
lradius 29.4474
lwrist 9.40583
lhand -12.8676 39.0769
lfingers 7.12502
lthumb 13.2209 68.6376
rfemur -32.4425 -3.76477 15.7302
rtibia 57.2383
rfoot -18.3676 1.66282
rtoes 5.89595
lfemur -9.02441 -5.21248 -27.8035
ltibia 33.2828
lfoot -29.0016 1.68343
ltoes -8.14747
18
root -25.7169 15.6605 -2.07319 99.4134 84.8456 94.4545
lowerback -2.28843 -3.04369 -8.04759
upperback -0.397869 -3.81633 -0.897686
thorax 1.33654 -1.92864 3.42414
lowerneck -9.22472 1.0786 4.3988
upperneck 3.33366 0.988218 -0.9894
head 2.71487 0.525394 -1.03965
rclavicle 8.33653e-015 8.64713e-015
rhumerus -144.335 -24.126 74.6442
rradius 4.03029
rwrist 146.592
rhand -23.0668 40.0938
rfingers 7.12502
rthumb 3.37855 10.1408
lclavicle 8.33653e-015 8.64713e-015
lhumerus -10.6988 3.67583 88.7073
lradius 30.3142
lwrist 9.58015
lhand -12.7596 38.5816
lfingers 7.12502
lthumb 13.3249 68.1356
rfemur -33.0411 -3.85203 15.8559
rtibia 54.6819
rfoot -18.2831 1.19496
rtoes 5.95156
lfemur -7.58572 -4.94283 -27.791
ltibia 32.4099
lfoot -28.5572 1.50486
ltoes -9.23231
19
root -25.5199 15.6503 -2.07072 102.054 84.482 97.5628
lowerback -1.70318 -3.12127 -8.54627
upperback -0.191937 -3.95751 -0.853045
thorax 1.27586 -2.00559 3.76455
lowerneck -9.11044 1.01463 4.46789
upperneck 2.96542 0.908538 -1.07101
head 2.56792 0.480347 -1.08075
rclavicle -3.79306e-014 -1.17283e-014
rhumerus -143.631 -24.1361 74.6579
rradius 4.0594
rwrist 145.574
rhand -23.1565 40.2747
rfingers 7.12502
rthumb 3.29197 10.3204
lclavicle -3.79306e-014 -1.17283e-014
lhumerus -9.40198 3.22605 89.1106
lradius 31.0892
lwrist 9.27997
lhand -12.8583 37.7959
lfingers 7.12502
lthumb 13.2298 67.3561
rfemur -33.2029 -4.10658 15.5161
rtibia 51.8501
rfoot -18.101 0.829138
rtoes 5.97775
lfemur -5.79789 -4.78513 -28.181
ltibia 31.4817
lfoot -28.6162 1.20191
ltoes -10.4593
20
root -25.3104 15.6542 -2.06354 102.366 84.2636 97.818
lowerback -1.92581 -3.19934 -8.51239
upperback -0.0140494 -4.02096 -1.10311
thorax 1.57392 -2.04989 3.46448
lowerneck -8.7437 0.928035 4.57932
upperneck 2.07646 0.788579 -0.567983
head 2.19358 0.430422 -0.93808
rclavicle 4.34841e-015 1.92821e-014
rhumerus -143.213 -24.0053 74.2285
rradius 4.22065
rwrist 144.353
rhand -22.924 40.0419
rfingers 7.12502
rthumb 3.51649 10.0912
lclavicle 4.34841e-015 1.92821e-014
lhumerus -8.11589 2.42577 88.9026
lradius 31.9511
lwrist 9.21836
lhand -12.9502 37.5726
lfingers 7.12502
lthumb 13.1412 67.1385
rfemur -33.7568 -4.06462 15.3308
rtibia 48.7025
rfoot -17.3932 0.466774
rtoes 6.56702
lfemur -4.52514 -4.62797 -28.3766
ltibia 30.415
lfoot -28.6416 0.241667
ltoes -2.14324
21
root -25.0922 15.6778 -2.06248 103.553 84.2841 98.8547
lowerback -2.22666 -3.29834 -8.60912
upperback 0.0930036 -4.11884 -0.909895
thorax 1.88767 -2.11683 3.68979
lowerneck -8.5853 0.993793 4.21462
upperneck 1.53519 0.923361 -0.357427
head 1.98266 0.494716 -0.79858
rclavicle 1.86858e-014 -3.47873e-015
rhumerus -142.527 -24.1698 74.2779
rradius 4.12427
rwrist 143.117
rhand -22.9606 39.8035
rfingers 7.12502
rthumb 3.48113 9.85213
lclavicle 1.86858e-014 -3.47873e-015
lhumerus -6.86748 1.69254 89.1061
lradius 32.8315
lwrist 9.32394
lhand -12.5604 37.4843
lfingers 7.12502
lthumb 13.5169 67.0256
rfemur -34.1944 -4.00909 15.3902
rtibia 45.3082
rfoot -16.4651 0.0202996
rtoes 5.98009
lfemur -3.37882 -4.63016 -28.3061
ltibia 29.2601
lfoot -28.3006 -1.22028
ltoes -1.7444
22
root -24.8709 15.688 -2.06066 102.266 84.2493 97.4467
lowerback -2.4903 -3.31408 -8.32797
upperback 0.0919824 -4.11336 -1.12943
thorax 1.99768 -2.11229 3.29235
lowerneck -8.53411 1.05203 4.23882
upperneck 1.62117 0.986507 0.00834867
head 1.99965 0.538529 -0.683166
rclavicle -5.76103e-014 -2.34566e-014
rhumerus -141.65 -23.9231 73.672
rradius 4.0384
rwrist 142.02
rhand -23.8219 39.3637
rfingers 7.12502
rthumb 2.64933 9.40037
lclavicle -5.76103e-014 -2.34566e-014
lhumerus -5.89777 0.588223 88.7125
lradius 33.6111
lwrist 9.46777
lhand -12.1092 37.6836
lfingers 7.12502
lthumb 13.9518 67.1954
rfemur -34.4978 -3.72599 15.3203
rtibia 41.7355
rfoot -15.5366 -0.377017
rtoes 5.0516
lfemur -2.11939 -4.2307 -28.3375
ltibia 28.0985
lfoot -28.1582 -2.00958
ltoes -1.3255
23
root -24.6587 15.6767 -2.06128 103.817 84.5265 99.5906
lowerback -1.8391 -3.35911 -8.24948
upperback 0.251697 -4.24657 -0.803269
thorax 1.83281 -2.18276 3.61191
lowerneck -8.85396 1.06899 3.96035
upperneck 2.26821 1.01236 -0.0496026
head 2.27183 0.554123 -0.653267
rclavicle 2.596e-014 1.68967e-014
rhumerus -140.682 -24.0878 73.6617
rradius 3.90543
rwrist 140.987
rhand -24.628 38.809
rfingers 7.12502
rthumb 1.87085 8.83746
lclavicle 2.596e-014 1.68967e-014
lhumerus -4.89374 0.302146 88.9711
lradius 34.1419
lwrist 9.34383
lhand -12.1492 37.477
lfingers 7.12502
lthumb 13.9132 66.9915
rfemur -34.0241 -3.34143 15.5319
rtibia 38.2632
rfoot -14.39 -1.21711
rtoes 4.62738
lfemur 0.12392 -4.01249 -28.0195
ltibia 26.5675
lfoot -28.0535 -2.26358
ltoes -1.64283
24
root -24.4105 15.6552 -2.07387 87.0015 85.3909 82.8661
lowerback -2.60625 -2.88837 -6.93541
upperback 0.555737 -3.57632 -0.855269
thorax 2.40883 -1.86225 2.81636
lowerneck -9.2034 1.05299 4.28803
upperneck 2.78258 0.934619 -0.157718
head 2.51212 0.52246 -0.750064
rclavicle 1.47535e-014 8.24956e-015
rhumerus -140.126 -23.903 73.2295
rradius 3.87378
rwrist 139.972
rhand -24.522 38.9226
rfingers 7.12502
rthumb 1.97324 8.95193
lclavicle 1.47535e-014 8.24956e-015
lhumerus -3.72442 -0.342395 88.5882
lradius 34.6334
lwrist 9.40175
lhand -12.1927 37.0848
lfingers 7.12502
lthumb 13.8713 66.6023
rfemur -34.2244 -1.62268 16.3428
rtibia 34.8628
rfoot -12.9523 -1.80981
rtoes 1.32284
lfemur 2.0403 -3.05197 -27.3972
ltibia 24.968
lfoot -28.1762 -1.69324
ltoes -1.94213
25
root -24.1746 15.6287 -2.08732 95.7053 84.1719 91.7388
lowerback -2.89009 -3.22013 -7.75323
upperback 0.825875 -3.92546 -1.29687
thorax 2.91219 -2.06013 2.76328
lowerneck -9.41415 1.05052 4.43969
upperneck 2.89378 0.906256 -0.242174
head 2.59086 0.509248 -0.805859
rclavicle -4.89135e-014 -2.98177e-016
rhumerus -139.587 -23.8045 72.9751
rradius 3.69899
rwrist 139.165
rhand -24.2907 40.1669
rfingers 7.12502
rthumb 2.19662 10.1985
lclavicle -4.89135e-014 -2.98177e-016
lhumerus -2.55198 -0.635557 88.4629
lradius 35.164
lwrist 9.25698
lhand -12.1314 36.9976
lfingers 7.12502
lthumb 13.9304 66.5109
rfemur -34.1959 -2.38889 14.7652
rtibia 31.8657
rfoot -11.7239 -2.18869
rtoes -2.44817
lfemur 4.17911 -3.32532 -28.7892
ltibia 22.986
lfoot -27.234 -2.87175
ltoes 1.03604
26
root -24.0087 15.6317 -2.04822 106.854 84.0351 101.941
lowerback -3.29946 -3.688 -8.13854
upperback 0.644312 -4.50771 -1.09927
thorax 3.06331 -2.35805 3.11633
lowerneck -9.47018 0.995634 4.34904
upperneck 2.63421 0.836391 -0.030495
head 2.50868 0.4783 -0.724113
rclavicle -2.8948e-014 1.35174e-014
rhumerus -139.31 -23.9188 72.9175
rradius 3.82606
rwrist 138.508
rhand -25.5506 39.721
rfingers 7.12502
rthumb 0.979752 9.74348
lclavicle -2.8948e-014 1.35174e-014
lhumerus -1.39518 -1.03966 88.3061
lradius 35.7544
lwrist 9.30706
lhand -12.0515 37.1311
lfingers 7.12502
lthumb 14.0074 66.6392
rfemur -35.3502 -1.83117 14.321
rtibia 28.9027
rfoot -9.7848 -3.88679
rtoes -2.48949
lfemur 4.72504 -3.33663 -28.1816
ltibia 21.0555
lfoot -26.4174 -3.78537
ltoes -4.40566
27
root -23.7654 15.6223 -2.06121 105.977 83.6038 101.255
lowerback -3.61205 -3.74566 -8.619
upperback 0.876485 -4.52092 -0.985498
thorax 3.53291 -2.39692 3.46577
lowerneck -9.34204 0.906402 4.08977
upperneck 2.20613 0.759925 0.0149773
head 2.33613 0.433277 -0.666821
rclavicle 4.59907e-014 1.63997e-014
rhumerus -138.849 -24.1708 73.2776
rradius 4.03992
rwrist 137.756
rhand -24.7726 40.9534
rfingers 7.12502
rthumb 1.7312 10.9807
lclavicle 4.59907e-014 1.63997e-014
lhumerus -0.485811 -1.45689 88.5294
lradius 36.3094
lwrist 9.458
lhand -12.1407 37.0329
lfingers 7.12502
lthumb 13.9214 66.5469
rfemur -35.2055 -1.61894 13.5086
rtibia 26.2585
rfoot -9.4639 -4.27882
rtoes -0.119958
lfemur 6.95045 -3.36045 -28.7405
ltibia 18.9043
lfoot -26.1146 -4.57513
ltoes -1.42571
28
root -23.5471 15.6278 -2.05554 108.576 83.7428 103.9
lowerback -3.47366 -3.82513 -8.221
upperback 0.835824 -4.66308 -1.00629
thorax 3.3947 -2.45447 3.22423
lowerneck -9.16611 0.90842 4.1399
upperneck 2.00031 0.757452 0.319494
head 2.23242 0.440356 -0.577215
rclavicle 3.91916e-014 1.1281e-014
rhumerus -137.968 -23.9134 72.8413
rradius 3.87949
rwrist 136.964
rhand -27.5826 37.599
rfingers 7.12502
rthumb -0.982797 7.62149
lclavicle 3.91916e-014 1.1281e-014
lhumerus 0.128539 -1.65119 88.3778
lradius 36.75
lwrist 9.22595
lhand -12.4182 37.1199
lfingers 7.12502
lthumb 13.654 66.652
rfemur -35.038 -0.497283 13.0557
rtibia 23.6166
rfoot -9.25585 -5.70057
rtoes 0.935102
lfemur 8.67327 -3.18815 -28.3441
ltibia 16.9769
lfoot -25.5741 -5.13989
ltoes -4.84852
29
root -23.3313 15.6374 -2.04384 113.36 83.4945 108.617
lowerback -3.41302 -4.1424 -8.71708
upperback 0.802934 -5.08778 -0.610399
thorax 3.45925 -2.68349 3.87433
lowerneck -9.14862 0.940678 3.94882
upperneck 1.93514 0.837361 -0.0461769
head 2.21077 0.464586 -0.657576
rclavicle -3.3548e-014 -2.17172e-014
rhumerus -137.832 -24.6976 73.4151
rradius 4.56574
rwrist 136.206
rhand -27.007 37.8635
rfingers 7.12502
rthumb -0.426873 7.88421
lclavicle -3.3548e-014 -2.17172e-014
lhumerus 0.788297 -1.27123 88.7801
lradius 37.2285
lwrist 9.07512
lhand -12.9198 37.4707
lfingers 7.12502
lthumb 13.1705 67.0347
rfemur -35.0184 0.647019 12.1062
rtibia 21.4537
rfoot -8.49222 -7.7913
rtoes 0.817309
lfemur 10.3968 -3.2035 -28.1642
ltibia 14.6423
lfoot -24.9642 -5.84665
ltoes -9.91002
30
root -23.1002 15.6312 -2.03526 117.247 83.0476 112.39
lowerback -3.64163 -4.4396 -8.96811
upperback 0.812922 -5.44756 -0.568247
thorax 3.67631 -2.87503 4.00309
lowerneck -9.05541 0.942301 3.74643
upperneck 1.7991 0.860919 0.139958
head 2.14528 0.478684 -0.561437
rclavicle 6.48224e-014 -3.72721e-015
rhumerus -137.431 -24.9347 73.3939
rradius 4.82362
rwrist 135.645
rhand -25.4208 40.2687
rfingers 7.12502
rthumb 1.10514 10.2919
lclavicle 6.48224e-014 -3.72721e-015
lhumerus 1.39032 -1.33749 88.7341
lradius 37.6418
lwrist 9.18878
lhand -14.0186 36.7559
lfingers 7.12502
lthumb 12.1112 66.3854
rfemur -35.0163 1.2006 11.1552
rtibia 19.4704
rfoot -7.5866 -9.68117
rtoes 0.267765
lfemur 12.1234 -3.24751 -28.195
ltibia 12.4903
lfoot -24.1218 -7.8814
ltoes -2.70748
31
root -22.876 15.601 -2.02152 120.057 82.8674 115.209
lowerback -3.70304 -4.58743 -9.10443
upperback 0.912053 -5.63065 -0.46304
thorax 3.86567 -2.98079 4.15823
lowerneck -9.04583 0.923132 3.62541
upperneck 1.50002 0.847542 0.373788
head 2.04077 0.475624 -0.466026
rclavicle 3.07247e-014 -1.38155e-014
rhumerus -136.999 -24.8981 73.3516
rradius 4.77952
rwrist 135.344
rhand -24.2715 42.179
rfingers 7.12502
rthumb 2.21519 12.2107
lclavicle 3.07247e-014 -1.38155e-014
lhumerus 2.16214 -1.44164 88.7596
lradius 37.8556
lwrist 9.17117
lhand -13.0935 36.4186
lfingers 7.12502
lthumb 13.003 65.9933
rfemur -35.0682 2.08926 10.4493
rtibia 17.9939
rfoot -7.3704 -11.7224
rtoes 1.04956
lfemur 14.1378 -3.0244 -27.9448
ltibia 10.165
lfoot -22.9778 -8.38887
ltoes -5.98835
